<svg width="234" height="55" viewBox="0 0 234 55" fill="none" xmlns="http://www.w3.org/2000/svg">
<path d="M81.4488 21.2991C90.4473 21.2895 97.7494 28.8106 97.7586 38.0979C97.7678 47.3851 90.4806 54.9216 81.4822 54.9311L16.3098 55C7.31136 55.0095 0.00922314 47.4884 8.72885e-06 38.2012C-0.00920569 28.9139 7.278 21.3774 16.2764 21.3679L81.4488 21.2991Z" fill="#74F5A8"/>
<path d="M41.2591 38.0978C41.2591 28.8106 48.5538 21.2818 57.5522 21.2818H81.4488C90.4472 21.2818 97.7419 28.8106 97.7419 38.0978C97.7419 47.385 90.4472 54.9138 81.4488 54.9138H57.5522C48.5538 54.9138 41.2591 47.385 41.2591 38.0978Z" fill="#30B87F"/>
<path d="M25.8851 23.2918C22.6684 14.9103 26.4279 5.40177 34.4079 1.73598L35.0148 1.45719C43.2358 -2.31925 52.8664 1.49761 56.5254 9.98238L75.8784 54.8596L38.0005 54.8596L25.8851 23.2918Z" fill="#44D77F"/>
<path d="M115.448 38.0286C114.538 38.0286 113.628 37.9552 112.717 37.8086C111.807 37.6829 110.948 37.4838 110.141 37.2114C109.334 36.9181 108.61 36.5619 107.969 36.1429C107.597 35.8914 107.338 35.5876 107.193 35.2314C107.048 34.8752 106.997 34.5295 107.038 34.1943C107.1 33.8381 107.234 33.5343 107.441 33.2829C107.669 33.0105 107.948 32.8429 108.279 32.78C108.61 32.7171 108.972 32.8114 109.366 33.0629C110.276 33.6076 111.238 34.0057 112.252 34.2571C113.266 34.5086 114.331 34.6343 115.448 34.6343C117.083 34.6343 118.272 34.3619 119.017 33.8171C119.762 33.2514 120.134 32.5286 120.134 31.6486C120.134 30.9152 119.866 30.339 119.328 29.92C118.81 29.501 117.91 29.1552 116.628 28.8829L113.214 28.16C111.248 27.741 109.779 27.039 108.807 26.0543C107.855 25.0486 107.379 23.7286 107.379 22.0943C107.379 21.0676 107.586 20.1352 108 19.2971C108.414 18.459 108.993 17.7362 109.738 17.1286C110.503 16.521 111.403 16.06 112.438 15.7457C113.493 15.4105 114.652 15.2429 115.914 15.2429C117.155 15.2429 118.334 15.4 119.452 15.7143C120.569 16.0286 121.572 16.4895 122.462 17.0971C122.793 17.3276 123.01 17.6105 123.114 17.9457C123.238 18.281 123.269 18.6162 123.207 18.9514C123.145 19.2657 123 19.5381 122.772 19.7686C122.545 19.999 122.255 20.1352 121.903 20.1771C121.572 20.219 121.19 20.1143 120.755 19.8629C119.99 19.4229 119.214 19.1086 118.428 18.92C117.641 18.7314 116.793 18.6371 115.883 18.6371C114.931 18.6371 114.114 18.7733 113.431 19.0457C112.748 19.3181 112.221 19.7057 111.848 20.2086C111.497 20.6905 111.321 21.2667 111.321 21.9371C111.321 22.6914 111.569 23.299 112.066 23.76C112.562 24.2 113.41 24.5457 114.61 24.7971L117.993 25.52C120.041 25.96 121.562 26.6514 122.555 27.5943C123.569 28.5371 124.076 29.7943 124.076 31.3657C124.076 32.3714 123.869 33.2829 123.455 34.1C123.062 34.9171 122.483 35.619 121.717 36.2057C120.972 36.7924 120.072 37.2429 119.017 37.5571C117.962 37.8714 116.772 38.0286 115.448 38.0286Z" fill="#010516"/>
<path d="M129.037 37.9657C128.416 37.9657 127.94 37.7981 127.609 37.4629C127.278 37.1067 127.113 36.6038 127.113 35.9543V17.2857C127.113 16.6362 127.278 16.1438 127.609 15.8086C127.94 15.4733 128.416 15.3057 129.037 15.3057C129.658 15.3057 130.134 15.4733 130.465 15.8086C130.816 16.1438 130.992 16.6362 130.992 17.2857V28.8829H131.054L136.175 23.4143C136.589 22.9952 136.951 22.6705 137.261 22.44C137.572 22.2095 137.996 22.0943 138.534 22.0943C139.072 22.0943 139.475 22.241 139.744 22.5343C140.034 22.8067 140.178 23.1419 140.178 23.54C140.178 23.9381 139.992 24.3362 139.62 24.7343L134.22 30.5171V28.8829L140.147 35.3571C140.52 35.7552 140.685 36.1638 140.644 36.5829C140.623 36.981 140.458 37.3162 140.147 37.5886C139.837 37.84 139.444 37.9657 138.968 37.9657C138.389 37.9657 137.923 37.8505 137.572 37.62C137.24 37.3895 136.868 37.0438 136.454 36.5829L131.054 30.8629H130.992V35.9543C130.992 37.2952 130.34 37.9657 129.037 37.9657Z" fill="#010516"/>
<path d="M147.054 43.6229C146.599 43.6229 146.227 43.4971 145.937 43.2457C145.647 43.0152 145.471 42.701 145.409 42.3029C145.368 41.9048 145.44 41.4857 145.627 41.0457L147.737 36.3V37.9343L142.089 24.7029C141.903 24.2419 141.84 23.8124 141.903 23.4143C141.965 23.0162 142.151 22.7019 142.461 22.4714C142.792 22.22 143.237 22.0943 143.796 22.0943C144.271 22.0943 144.654 22.2095 144.944 22.44C145.234 22.6495 145.492 23.0581 145.72 23.6657L149.909 34.2571H148.978L153.261 23.6343C153.489 23.0476 153.758 22.6495 154.068 22.44C154.378 22.2095 154.792 22.0943 155.309 22.0943C155.765 22.0943 156.127 22.22 156.396 22.4714C156.665 22.7019 156.83 23.0162 156.892 23.4143C156.954 23.7914 156.882 24.2105 156.675 24.6714L149.134 42.1143C148.865 42.701 148.575 43.099 148.265 43.3086C147.954 43.5181 147.551 43.6229 147.054 43.6229Z" fill="#010516"/>
<path d="M167.455 38.0286C166.545 38.0286 165.635 37.9552 164.724 37.8086C163.814 37.6829 162.955 37.4838 162.148 37.2114C161.341 36.9181 160.617 36.5619 159.976 36.1429C159.604 35.8914 159.345 35.5876 159.2 35.2314C159.055 34.8752 159.004 34.5295 159.045 34.1943C159.107 33.8381 159.241 33.5343 159.448 33.2829C159.676 33.0105 159.955 32.8429 160.286 32.78C160.617 32.7171 160.979 32.8114 161.373 33.0629C162.283 33.6076 163.245 34.0057 164.259 34.2571C165.273 34.5086 166.338 34.6343 167.455 34.6343C169.09 34.6343 170.279 34.3619 171.024 33.8171C171.769 33.2514 172.141 32.5286 172.141 31.6486C172.141 30.9152 171.873 30.339 171.335 29.92C170.817 29.501 169.917 29.1552 168.635 28.8829L165.221 28.16C163.255 27.741 161.786 27.039 160.814 26.0543C159.862 25.0486 159.386 23.7286 159.386 22.0943C159.386 21.0676 159.593 20.1352 160.007 19.2971C160.421 18.459 161 17.7362 161.745 17.1286C162.51 16.521 163.41 16.06 164.445 15.7457C165.5 15.4105 166.659 15.2429 167.921 15.2429C169.162 15.2429 170.341 15.4 171.459 15.7143C172.576 16.0286 173.579 16.4895 174.469 17.0971C174.8 17.3276 175.017 17.6105 175.121 17.9457C175.245 18.281 175.276 18.6162 175.214 18.9514C175.152 19.2657 175.007 19.5381 174.779 19.7686C174.552 19.999 174.262 20.1352 173.91 20.1771C173.579 20.219 173.197 20.1143 172.762 19.8629C171.997 19.4229 171.221 19.1086 170.435 18.92C169.648 18.7314 168.8 18.6371 167.89 18.6371C166.938 18.6371 166.121 18.7733 165.438 19.0457C164.755 19.3181 164.228 19.7057 163.855 20.2086C163.504 20.6905 163.328 21.2667 163.328 21.9371C163.328 22.6914 163.576 23.299 164.073 23.76C164.569 24.2 165.417 24.5457 166.617 24.7971L170 25.52C172.048 25.96 173.569 26.6514 174.562 27.5943C175.576 28.5371 176.083 29.7943 176.083 31.3657C176.083 32.3714 175.876 33.2829 175.462 34.1C175.069 34.9171 174.49 35.619 173.724 36.2057C172.979 36.7924 172.079 37.2429 171.024 37.5571C169.969 37.8714 168.779 38.0286 167.455 38.0286Z" fill="#010516"/>
<path d="M181.044 37.9343C180.423 37.9343 179.947 37.7457 179.616 37.3686C179.285 36.9914 179.12 36.4676 179.12 35.7971V24.2629C179.12 23.5714 179.285 23.0476 179.616 22.6914C179.947 22.3143 180.423 22.1257 181.044 22.1257C181.665 22.1257 182.141 22.3143 182.472 22.6914C182.823 23.0476 182.999 23.5714 182.999 24.2629V35.7971C182.999 36.4676 182.834 36.9914 182.503 37.3686C182.172 37.7457 181.685 37.9343 181.044 37.9343ZM181.044 19.2029C180.32 19.2029 179.751 19.0248 179.337 18.6686C178.944 18.2914 178.747 17.7781 178.747 17.1286C178.747 16.4581 178.944 15.9448 179.337 15.5886C179.751 15.2324 180.32 15.0543 181.044 15.0543C181.789 15.0543 182.358 15.2324 182.751 15.5886C183.144 15.9448 183.341 16.4581 183.341 17.1286C183.341 17.7781 183.144 18.2914 182.751 18.6686C182.358 19.0248 181.789 19.2029 181.044 19.2029Z" fill="#010516"/>
<path d="M194.106 43.6857C192.989 43.6857 191.902 43.581 190.847 43.3714C189.813 43.1619 188.871 42.8371 188.023 42.3971C187.63 42.1876 187.361 41.9362 187.216 41.6429C187.092 41.3495 187.051 41.0457 187.092 40.7314C187.154 40.4381 187.278 40.1762 187.465 39.9457C187.671 39.7152 187.92 39.5581 188.209 39.4743C188.499 39.3905 188.799 39.4324 189.109 39.6C190.02 40.061 190.878 40.3543 191.685 40.48C192.513 40.6267 193.216 40.7 193.796 40.7C195.182 40.7 196.216 40.3543 196.899 39.6629C197.602 38.9924 197.954 37.9867 197.954 36.6457V33.8171H198.234C197.923 34.8857 197.271 35.7448 196.278 36.3943C195.306 37.0229 194.199 37.3371 192.958 37.3371C191.592 37.3371 190.402 37.0229 189.389 36.3943C188.375 35.7448 187.589 34.8438 187.03 33.6914C186.471 32.539 186.192 31.1981 186.192 29.6686C186.192 28.5162 186.347 27.479 186.658 26.5571C186.989 25.6143 187.444 24.8076 188.023 24.1371C188.623 23.4667 189.337 22.9533 190.165 22.5971C191.013 22.22 191.944 22.0314 192.958 22.0314C194.24 22.0314 195.358 22.3562 196.309 23.0057C197.282 23.6343 197.913 24.4724 198.202 25.52L197.892 26.3057V24.0743C197.892 23.4248 198.058 22.9324 198.389 22.5971C198.74 22.2619 199.216 22.0943 199.816 22.0943C200.437 22.0943 200.913 22.2619 201.244 22.5971C201.575 22.9324 201.74 23.4248 201.74 24.0743V36.1743C201.74 38.6676 201.089 40.5429 199.785 41.8C198.482 43.0571 196.589 43.6857 194.106 43.6857ZM194.013 34.3514C194.82 34.3514 195.513 34.1629 196.092 33.7857C196.671 33.4086 197.116 32.8743 197.427 32.1829C197.758 31.4705 197.923 30.6324 197.923 29.6686C197.923 28.2229 197.571 27.0914 196.868 26.2743C196.165 25.4362 195.213 25.0171 194.013 25.0171C193.206 25.0171 192.513 25.2057 191.933 25.5829C191.354 25.96 190.899 26.4943 190.568 27.1857C190.258 27.8771 190.102 28.7048 190.102 29.6686C190.102 31.1143 190.454 32.2562 191.158 33.0943C191.861 33.9324 192.813 34.3514 194.013 34.3514Z" fill="#010516"/>
<path d="M207.684 37.9657C207.063 37.9657 206.587 37.7981 206.256 37.4629C205.925 37.1067 205.76 36.6038 205.76 35.9543V17.2857C205.76 16.6362 205.925 16.1438 206.256 15.8086C206.587 15.4733 207.063 15.3057 207.684 15.3057C208.305 15.3057 208.781 15.4733 209.112 15.8086C209.463 16.1438 209.639 16.6362 209.639 17.2857V25.4257H209.205C209.66 24.3152 210.363 23.4771 211.315 22.9114C212.287 22.3248 213.384 22.0314 214.605 22.0314C215.825 22.0314 216.829 22.2619 217.615 22.7229C218.401 23.1838 218.991 23.8857 219.384 24.8286C219.777 25.7505 219.974 26.9238 219.974 28.3486V35.9543C219.974 36.6038 219.808 37.1067 219.477 37.4629C219.146 37.7981 218.67 37.9657 218.049 37.9657C217.429 37.9657 216.943 37.7981 216.591 37.4629C216.26 37.1067 216.094 36.6038 216.094 35.9543V28.5371C216.094 27.3429 215.867 26.4733 215.412 25.9286C214.977 25.3838 214.294 25.1114 213.363 25.1114C212.225 25.1114 211.315 25.4781 210.632 26.2114C209.97 26.9238 209.639 27.8771 209.639 29.0714V35.9543C209.639 37.2952 208.987 37.9657 207.684 37.9657Z" fill="#010516"/>
<path d="M230.866 38.0286C229.521 38.0286 228.393 37.7981 227.483 37.3371C226.593 36.8762 225.931 36.2057 225.497 35.3257C225.062 34.4248 224.845 33.3143 224.845 31.9943V25.3H223.231C222.734 25.3 222.352 25.1743 222.083 24.9229C221.814 24.6505 221.679 24.2838 221.679 23.8229C221.679 23.341 221.814 22.9743 222.083 22.7229C222.352 22.4714 222.734 22.3457 223.231 22.3457H224.845V19.4857C224.845 18.8362 225.01 18.3438 225.341 18.0086C225.693 17.6733 226.179 17.5057 226.8 17.5057C227.421 17.5057 227.897 17.6733 228.228 18.0086C228.559 18.3438 228.724 18.8362 228.724 19.4857V22.3457H232.014C232.51 22.3457 232.893 22.4714 233.162 22.7229C233.431 22.9743 233.566 23.341 233.566 23.8229C233.566 24.2838 233.431 24.6505 233.162 24.9229C232.893 25.1743 232.51 25.3 232.014 25.3H228.724V31.7743C228.724 32.78 228.941 33.5343 229.376 34.0371C229.81 34.54 230.514 34.7914 231.486 34.7914C231.838 34.7914 232.148 34.76 232.417 34.6971C232.686 34.6343 232.924 34.5924 233.131 34.5714C233.379 34.5505 233.586 34.6343 233.752 34.8229C233.917 34.9905 234 35.3467 234 35.8914C234 36.3105 233.928 36.6876 233.783 37.0229C233.659 37.3371 233.421 37.5571 233.069 37.6829C232.8 37.7667 232.448 37.84 232.014 37.9029C231.579 37.9867 231.197 38.0286 230.866 38.0286Z" fill="#010516"/>
</svg>
