<svg width="98" height="54" viewBox="0 0 98 54" fill="none" xmlns="http://www.w3.org/2000/svg">
<path d="M81.6499 20.9118C90.6706 20.9025 97.9908 28.2868 98 37.4052C98.0092 46.5235 90.704 53.923 81.6834 53.9324L16.3501 54C7.32942 54.0093 0.00924592 46.625 8.75041e-06 37.5066C-0.00922841 28.3882 7.29596 20.9888 16.3166 20.9794L81.6499 20.9118Z" fill="#74F5A8"/>
<path d="M41.361 37.4051C41.361 28.2867 48.6737 20.8948 57.6943 20.8948H81.6499C90.6705 20.8948 97.9832 28.2867 97.9832 37.4051C97.9832 46.5235 90.6705 53.9154 81.6499 53.9154H57.6943C48.6737 53.9154 41.361 46.5235 41.361 37.4051Z" fill="#30B87F"/>
<path d="M25.949 22.8683C22.7244 14.6392 26.4931 5.30356 34.4929 1.70442L35.1013 1.4307C43.3425 -2.27708 52.9969 1.47038 56.6649 9.80088L76.0657 53.8621L38.0943 53.8622L25.949 22.8683Z" fill="#44D77F"/>
</svg>
